# xmcd
# 
# Track frame offsets:
#     150
#     10432
#     21188
#     32348
#     44971
#     57204
#     67382
#     79873
#     92189
#     106637
#     117477
#     130943
#     148365
#     161531
#     172761
#     186833
#     202981
#     214824
#     228408
#     245768
# 
# Disc length: 3428
# 
# Revision: 0
# Processed by: cddbd v1.5.2PL0 Copyright (c) Steve Scherf et al.
# Submitted via: fre:ac v1.0.17
# 
DISCID=240d6214
DTITLE=John Lee Hooker - Mari Cantareti de Jazz si Blues 20
DYEAR=2013
DGENRE=Jazz
TTITLE0=Dimples
TTITLE1=Maudie
TTITLE2=Shake, holler and run
TTITLE3=Hobo blues
TTITLE4=Crawling King Snake
TTITLE5=Want-ad blues
TTITLE6=I'm in the mood
TTITLE7=Whiskey and wimmen
TTITLE8=Cool little car
TTITLE9=Gonna boogie
TTITLE10=Ride till I die
TTITLE11=Wednesday evening blues
TTITLE12=Rock house boogie
TTITLE13=No shoes
TTITLE14=Half a stranger
TTITLE15=My first wife left me
TTITLE16=I love you honey
TTITLE17=Time is marching
TTITLE18=Blues before sunrise
TTITLE19=Boom boom
EXTD=
EXTT0=
EXTT1=
EXTT2=
EXTT3=
EXTT4=
EXTT5=
EXTT6=
EXTT7=
EXTT8=
EXTT9=
EXTT10=
EXTT11=
EXTT12=
EXTT13=
EXTT14=
EXTT15=
EXTT16=
EXTT17=
EXTT18=
EXTT19=
PLAYORDER=
